<?xml version="1.0" encoding="UTF-8"?>
<svg id="Laag_2" data-name="Laag 2" xmlns="http://www.w3.org/2000/svg" viewBox="0 0 327.76 327.96">
  <defs>
    <style>
      .cls-1 {
        fill: #fff;
      }
    </style>
  </defs>
  <g id="Laag_2-2" data-name="Laag 2">
    <g>
      <path class="cls-1" d="M298.7,327.66c-8.61,0-17.21-.04-25.82,.03-2.04,.02-2.81-.45-2.69-2.74,1.26-23.09-1.16-45.95-7.22-68.14-26.36-96.49-87.32-159.99-183.03-189.51-24.44-7.54-49.71-10.48-75.34-9.36-2.23,.1-3.13-.39-3.12-2.79,.08-17.21,.08-34.42-.01-51.63-.01-2.37,.91-2.85,3.02-3.06,10.12-.97,20.21-.2,30.26,.58,38.9,3.02,76.29,12.32,111.24,29.72,94.74,47.18,153.42,122.69,175.72,226.23,4.69,21.76,6.48,43.86,5.96,66.15-.08,3.47-.98,4.74-4.65,4.61-8.1-.28-16.21-.09-24.32-.09Z"/>
      <path class="cls-1" d="M184.06,327.89c-8.36,0-16.72-.1-25.07,.06-2.65,.05-3.64-.4-3.49-3.42,2.91-59.93-33.56-118.7-93.03-141.72-18.7-7.24-38.1-10.71-58.21-9.36-2.29,.15-2.76-.63-2.76-2.67,.05-17.34,.11-34.68-.04-52.01-.03-3.36,2.01-3.18,4.1-3.26,15.16-.62,30.16,.83,44.97,3.95,80.28,16.93,141.56,78.15,158.58,158.48,3.24,15.29,4.72,30.78,4.02,46.46-.12,2.67-.74,3.65-3.62,3.58-8.48-.2-16.96-.07-25.44-.07Z"/>
      <path class="cls-1" d="M48.88,230.58c26.69,.06,48.33,21.96,48.23,48.8-.1,26.79-21.92,48.56-48.6,48.51C21.89,327.83,.04,305.89,0,279.18c-.04-26.84,21.92-48.67,48.88-48.61Z"/>
    </g>
  </g>
</svg>