<?xml version="1.0" encoding="UTF-8"?>
<svg id="Laag_2" data-name="Laag 2" xmlns="http://www.w3.org/2000/svg" viewBox="0 0 253.22 487.24">
  <defs>
    <style>
      .cls-1 {
        fill: #fff;
      }
    </style>
  </defs>
  <g id="Laag_2-2" data-name="Laag 2">
    <path class="cls-1" d="M211.31,0c7.46,1.75,15.13,.66,22.66,1.76,5.01,.73,10.1,.94,15.16,1.19,2.83,.14,4.12,.9,4.09,4.19-.16,23.3-.15,46.61,0,69.91,.02,3.24-1.08,3.85-4.06,3.89-17.27,.21-34.56-.79-51.81,.65-20.73,1.73-32.01,12.92-32.56,33.57-.52,19.8-.16,39.63-.42,59.44-.05,4.07,2.22,3.69,4.83,3.69,25.21-.02,50.42,.09,75.62-.11,4.33-.04,5.27,.98,4.68,5.3-3.48,25.58-6.73,51.2-9.87,76.83-.47,3.87-2.06,4.73-5.76,4.7-21.24-.19-42.49,.05-63.73-.2-4.54-.05-5.81,1.07-5.8,5.73,.16,70.23,.06,140.46,.22,210.7,.01,4.7-.99,6.07-5.91,6.02-26.16-.28-52.32-.23-78.47-.03-4.13,.03-5.27-.92-5.26-5.17,.14-70.39,.05-140.78,.21-211.17,.01-4.74-1.06-6.15-5.97-6.08-21.08,.29-42.17-.05-63.25,.25-4.98,.07-5.92-1.45-5.88-6.1,.24-25.05,.26-50.1-.02-75.14-.05-4.8,1.46-5.66,5.86-5.62,21.4,.22,42.81,0,64.21,.19,3.97,.03,5.05-1.13,5.03-5.07-.09-22.99-.56-46,.37-68.95,1.11-27.29,9.18-52.32,28.43-72.72,14.64-15.51,32.9-24.39,53.57-28.67,5.54-1.15,11.15-1.98,16.73-2.95,12.37,0,24.74,0,37.1,0Z"/>
  </g>
</svg>