<?xml version="1.0" encoding="UTF-8"?>
<svg id="Laag_2" data-name="Laag 2" xmlns="http://www.w3.org/2000/svg" viewBox="0 0 183.42 183.29">
  <defs>
    <style>
      .cls-1 {
        fill: #adb5d9;
      }
    </style>
  </defs>
  <g id="Laag_1-2" data-name="Laag 1">
    <g id="wtUs1I.tif">
      <path class="cls-1" d="M79.52,160c-39.39-.27-72.63-29-78.62-68.37C-5.62,48.81,24.01,8.17,66.91,1.09c42.89-7.08,83.88,21.21,91.71,63.66,4.52,24.48-1.17,46.6-16.89,66-1.24,1.54-1.09,2.25,.21,3.55,12.89,12.8,25.72,25.66,38.56,38.51,3.3,3.3,3.82,6.46,1.47,8.9-2.42,2.52-5.67,2.03-9.07-1.36-12.85-12.84-25.71-25.67-38.5-38.57-1.35-1.36-2.09-1.35-3.56-.14-14.75,12.17-31.77,18.16-51.33,18.36Zm.57-10.75c38.34,.01,69.25-30.86,69.28-69.21,.04-38.34-30.83-69.31-69.14-69.38-38.28-.07-69.38,30.89-69.44,69.11-.06,38.46,30.86,69.46,69.3,69.47Z"/>
    </g>
  </g>
</svg>