<?xml version="1.0" encoding="UTF-8"?>
<svg id="Laag_2" data-name="Laag 2" xmlns="http://www.w3.org/2000/svg" viewBox="0 0 407.87 332.1">
  <defs>
    <style>
      .cls-1 {
        fill: #fff;
      }
    </style>
  </defs>
  <g id="Laag_2-2" data-name="Laag 2">
    <path class="cls-1" d="M0,294.69c45.71,4.11,86.1-6.89,122.86-34.46-4.23-.54-7.57-.82-10.85-1.41-31.45-5.69-53.07-23.6-65.43-52.9-1.75-4.15-1.45-4.33,3.17-3.72,10.5,1.39,20.88,.87,32.39-2.03-20.18-4.96-36.02-14.74-48.2-30.1-12.14-15.31-18.19-32.78-18.16-52.99,11.64,5.85,23.37,9.68,36.17,9.98-.18-1.66-1.48-2.03-2.35-2.7-18.45-14.13-29.28-32.86-32.48-55.69-2.5-17.84,.87-34.9,9.37-50.91,1.87-3.52,2.76-.75,3.7,.38,14.63,17.45,31.41,32.51,50.35,45.13,31.28,20.84,65.58,33.64,102.93,38.14,4.62,.56,9.27,.83,13.89,1.4,2.48,.31,3.17-.14,2.7-2.9-3.66-21.82-.05-42.24,11.71-61.19C228.91,11.11,263.76-4.5,295.67,1.15c17.55,3.11,32.76,10.59,45.43,23.12,1.7,1.68,3.17,2.08,5.6,1.54,17.25-3.83,33.52-10.14,49.87-19.58-6.55,19.82-18.32,34.17-34.47,45.42,15.66-1.42,30.44-5.94,45.77-12.22-10.75,15.8-22.67,28.96-37.12,39.64-3.66,2.7-4.61,5.54-4.52,9.96,.8,38.45-7.71,74.93-24.38,109.48-20.01,41.47-49.07,75.05-88.38,99.38-27.98,17.32-58.46,27.64-91.06,31.95-28.63,3.79-57.06,2.88-85.28-3.16-26.89-5.75-51.96-16.05-75.29-30.61-.33-.2-.62-.46-1.82-1.37Z"/>
  </g>
</svg>