<?xml version="1.0" encoding="UTF-8"?>
<svg id="Laag_2" data-name="Laag 2" xmlns="http://www.w3.org/2000/svg" viewBox="0 0 367.86 260.01">
  <defs>
    <style>
      .cls-1 {
        fill: #fff;
      }
    </style>
  </defs>
  <g id="Laag_2-2" data-name="Laag 2">
    <path class="cls-1" d="M367.86,71.81v116.41c-.64,3.87-1.05,7.8-1.95,11.62-8.57,36.38-38.38,60.11-75.73,60.14-70.89,.06-141.77,.01-212.66,.03-5.89,0-11.75-.45-17.46-1.8C24.11,249.7,.31,219.98,.11,183c-.19-35.32-.1-70.65-.01-105.97,.03-13.63,2.99-26.65,10.06-38.42C25.47,13.12,48.19,.15,77.88,.09c70.65-.16,141.29-.05,211.94-.05,1.8,0,3.59,.03,5.39,.11,32.95,1.51,61.5,24.71,69.88,56.56,1.31,4.99,1.54,10.13,2.78,15.1Zm-234.58,58.41c0,15.69-.02,31.37,0,47.06,0,6.25,2.45,7.79,8.1,5.1,32.06-15.28,64.1-30.58,96.15-45.87,2.18-1.04,4.58-2.03,4.56-4.94-.02-2.89-2.44-3.88-4.58-4.97-32-16.21-64.01-32.42-96.02-48.62-5.71-2.89-8.2-1.32-8.21,5.17-.02,15.69,0,31.37,0,47.06Z"/>
  </g>
</svg>