<?xml version="1.0" encoding="utf-8"?>
<!-- Generator: Adobe Illustrator 27.0.0, SVG Export Plug-In . SVG Version: 6.00 Build 0)  -->
<svg version="1.1" id="Laag_2_00000124851691467153579290000014135335427639311284_"
	 xmlns="http://www.w3.org/2000/svg" xmlns:xlink="http://www.w3.org/1999/xlink" x="0px" y="0px" viewBox="0 0 91.6 91.6"
	 style="enable-background:new 0 0 91.6 91.6;" xml:space="preserve">
<style type="text/css">
	.st0{fill:none;}
	.st1{fill:#362B73;}
	.st2{fill:none;stroke:#00217F;stroke-miterlimit:10;}
	.st3{fill:#FFFFFF;}
</style>
<g>
	<g>
		<circle class="st0" cx="44.9" cy="45.8" r="45.8"/>
	</g>
	<g>
		<g>
			<path class="st1" d="M44.9,21.2c-13.6,0-24.6,11-24.6,24.6c0,7.4,3.3,14.1,8.5,18.6c4.3,3.8,9.9,6,16.1,6s11.8-2.3,16.1-6
				c5.2-4.5,8.5-11.2,8.5-18.6C69.5,32.2,58.5,21.2,44.9,21.2z M55.9,63.2c-0.5,0.3-1.1,0.7-1.6,0.9c-0.4,0.2-0.8,0.4-1.1,0.5
				c-1,0.4-2,0.8-3,1.1c-0.5,0.1-1,0.2-1.5,0.3c-0.1,0-0.2,0-0.3,0.1c-0.2,0-0.5,0.1-0.7,0.1c-0.2,0-0.4,0.1-0.7,0.1
				c-0.2,0-0.4,0-0.6,0.1c-0.2,0-0.4,0-0.7,0c-0.3,0-0.6,0-0.9,0s-0.6,0-0.9,0c-0.2,0-0.4,0-0.6,0c-0.2,0-0.4,0-0.5-0.1
				c-0.2,0-0.5-0.1-0.7-0.1c-0.2,0-0.5-0.1-0.7-0.1c-0.1,0-0.2,0-0.4-0.1c-0.5-0.1-1.1-0.2-1.6-0.4c-0.3-0.1-0.5-0.1-0.8-0.2
				c-0.3-0.1-0.7-0.2-1-0.3c-0.3-0.1-0.5-0.2-0.8-0.3c-0.3-0.1-0.6-0.2-0.8-0.4c-0.6-0.3-1.2-0.6-1.7-0.9c-0.2-0.1-0.5-0.3-0.7-0.4
				c-0.1,0-0.2-0.1-0.3-0.2l0,0c1.8-4.7,6.3-7.9,11.5-7.9s9.7,3.2,11.5,7.9C56.2,63,56.1,63.1,55.9,63.2z M59.6,60.2
				c-2.7-5.5-8.2-9.2-14.7-9.2s-12.1,3.8-14.7,9.2c-3.8-3.8-5.9-9-5.9-14.4c0-11.4,9.2-20.6,20.6-20.6s20.6,9.3,20.6,20.6
				C65.5,51.2,63.4,56.4,59.6,60.2z"/>
			<path class="st1" d="M44.9,70.9c-6,0-11.9-2.2-16.4-6.1c-5.5-4.8-8.7-11.7-8.7-19C19.7,32,31,20.7,44.9,20.7
				C58.7,20.7,70,32,70,45.8c0,7.3-3.2,14.2-8.7,19C56.7,68.8,50.9,70.9,44.9,70.9z M44.9,21.7c-13.3,0-24.1,10.8-24.1,24.1
				c0,7,3,13.7,8.3,18.2c4.4,3.8,10,5.9,15.8,5.9c5.8,0,11.4-2.1,15.8-5.9C66,59.5,69,52.8,69,45.8C69,32.5,58.2,21.7,44.9,21.7z
				 M44.9,66.9c-0.3,0-0.6,0-0.9,0c-0.3,0-0.5,0-0.7,0c-0.2,0-0.4,0-0.5-0.1c-0.2,0-0.5-0.1-0.7-0.1c-0.2,0-0.5-0.1-0.7-0.1
				c0,0-0.1,0-0.2,0l-0.1,0c-0.5-0.1-1.1-0.2-1.7-0.4c-0.3-0.1-0.6-0.2-0.8-0.2c-0.3-0.1-0.7-0.2-1-0.4c-0.3-0.1-0.5-0.2-0.8-0.3
				c-0.3-0.1-0.6-0.2-0.9-0.4c-0.6-0.3-1.2-0.6-1.7-0.9c-0.2-0.1-0.5-0.3-0.7-0.4c0,0-0.1-0.1-0.2-0.1l-0.3-0.2l0.1-0.4
				c1.9-5,6.6-8.2,12-8.2c5.3,0,10.1,3.3,12,8.2l0.1,0.4l-0.3,0.2c-0.2,0.1-0.3,0.2-0.5,0.3c-0.5,0.3-1.1,0.7-1.7,1
				c-0.4,0.2-0.8,0.4-1.2,0.6c-1,0.4-2,0.8-3,1.1c-0.5,0.1-1,0.3-1.5,0.3l-0.3,0.1c-0.2,0-0.5,0.1-0.7,0.1c-0.2,0-0.4,0.1-0.7,0.1
				c-0.2,0-0.4,0-0.6,0.1c-0.2,0-0.4,0-0.7,0C45.5,66.9,45.2,66.9,44.9,66.9z M34,62.7c0.2,0.1,0.4,0.2,0.6,0.4
				c0.5,0.3,1,0.6,1.7,0.9c0.3,0.1,0.5,0.3,0.8,0.4c0.3,0.1,0.5,0.2,0.8,0.3c0.3,0.1,0.7,0.2,1,0.3c0.2,0.1,0.5,0.1,0.7,0.2
				c0.7,0.2,1.2,0.3,1.7,0.4l0.1,0c0.1,0,0.1,0,0.2,0c0.3,0.1,0.5,0.1,0.7,0.1c0.2,0,0.4,0.1,0.7,0.1c0.2,0,0.3,0,0.5,0
				c0.2,0,0.4,0,0.6,0c0.6,0,1.2,0,1.8,0c0.3,0,0.5,0,0.7,0c0.2,0,0.3,0,0.5,0c0.3,0,0.5-0.1,0.7-0.1c0.2,0,0.5-0.1,0.7-0.1l0.3-0.1
				c0.5-0.1,1-0.2,1.4-0.3c1-0.3,2-0.6,2.9-1c0.4-0.2,0.8-0.3,1.1-0.5c0.5-0.3,1.1-0.6,1.6-0.9l0,0c0,0,0.1-0.1,0.1-0.1
				c-1.8-4.3-6.2-7.2-10.9-7.2C40.1,55.5,35.8,58.3,34,62.7z M59.5,61.1l-0.3-0.6c-2.6-5.4-8.2-8.9-14.3-8.9
				c-6.1,0-11.6,3.4-14.3,8.9l-0.3,0.6l-0.5-0.5c-3.9-4-6-9.2-6-14.8c0-11.7,9.5-21.1,21.1-21.1c11.7,0,21.1,9.5,21.1,21.1
				c0,5.6-2.1,10.8-6,14.8L59.5,61.1z M44.9,50.5c6.2,0,11.9,3.5,14.9,8.9c3.4-3.7,5.3-8.5,5.3-13.6c0-11.1-9-20.1-20.1-20.1
				c-11.1,0-20.1,9-20.1,20.1c0,5.1,1.9,9.9,5.3,13.6C33,53.9,38.6,50.5,44.9,50.5z"/>
		</g>
		<g>
			<path class="st1" d="M44.9,32c3.3,0,6,2.7,6,6s-2.7,6-6,6s-6-2.7-6-6S41.5,32,44.9,32L44.9,32z M44.9,28c-5.5,0-10,4.5-10,10
				s4.5,10,10,10s10-4.5,10-10S50.4,28,44.9,28L44.9,28z"/>
			<path class="st1" d="M44.9,48.6c-5.8,0-10.6-4.7-10.6-10.6s4.7-10.5,10.6-10.5S55.4,32.2,55.4,38S50.7,48.6,44.9,48.6z
				 M44.9,28.5c-5.3,0-9.6,4.3-9.6,9.5c0,5.3,4.3,9.6,9.6,9.6c5.3,0,9.5-4.3,9.5-9.6C54.4,32.8,50.1,28.5,44.9,28.5z M44.9,44.6
				c-3.6,0-6.6-2.9-6.6-6.6c0-3.6,2.9-6.5,6.6-6.5c3.6,0,6.5,2.9,6.5,6.5C51.4,41.6,48.5,44.6,44.9,44.6z M44.9,32.5
				c-3.1,0-5.6,2.5-5.6,5.5c0,3.1,2.5,5.6,5.6,5.6s5.5-2.5,5.5-5.6C50.4,35,47.9,32.5,44.9,32.5z"/>
		</g>
	</g>
</g>
<rect x="0.8" y="102.3" class="st0" width="69.4" height="40.4"/>
<text transform="matrix(1 0 0 1 0.7544 110.7754)"><tspan x="0" y="0" style="font-family:'MyriadPro-Regular'; font-size:12px;">Lorem ipsum </tspan><tspan x="0" y="14.4" style="font-family:'MyriadPro-Regular'; font-size:12px;">dolor sit </tspan><tspan x="0" y="28.8" style="font-family:'MyriadPro-Regular'; font-size:12px;">amet, consec</tspan></text>
<line class="st2" x1="-74.9" y1="31.9" x2="-60.7" y2="36.1"/>
<image style="overflow:visible;" width="430" height="94" xlink:href="../../../../../Schermafbeeldingen/Schermafbeelding 2022-11-07 om 21.35.04.png"  transform="matrix(7.381542e-02 0 0 7.381542e-02 -53.2665 28.9235)">
</image>
<g>
	<path class="st3" d="M-96.5,33c7.5,1.8,15.1,0.7,22.7,1.8c5,0.7,10.1,0.9,15.2,1.2c2.8,0.1,4.1,0.9,4.1,4.2
		c-0.2,23.3-0.1,46.6,0,69.9c0,3.2-1.1,3.9-4.1,3.9c-17.3,0.2-34.6-0.8-51.8,0.7c-20.7,1.7-32,12.9-32.6,33.6
		c-0.5,19.8-0.2,39.6-0.4,59.4c-0.1,4.1,2.2,3.7,4.8,3.7c25.2,0,50.4,0.1,75.6-0.1c4.3,0,5.3,1,4.7,5.3c-3.5,25.6-6.7,51.2-9.9,76.8
		c-0.5,3.9-2.1,4.7-5.8,4.7c-21.2-0.2-42.5,0-63.7-0.2c-4.5-0.1-5.8,1.1-5.8,5.7c0.2,70.2,0.1,140.5,0.2,210.7c0,4.7-1,6.1-5.9,6
		c-26.2-0.3-52.3-0.2-78.5,0c-4.1,0-5.3-0.9-5.3-5.2c0.1-70.4,0.1-140.8,0.2-211.2c0-4.7-1.1-6.2-6-6.1c-21.1,0.3-42.2-0.1-63.3,0.3
		c-5,0.1-5.9-1.4-5.9-6.1c0.2-25,0.3-50.1,0-75.1c-0.1-4.8,1.5-5.7,5.9-5.6c21.4,0.2,42.8,0,64.2,0.2c4,0,5-1.1,5-5.1
		c-0.1-23-0.6-46,0.4-69c1.1-27.3,9.2-52.3,28.4-72.7c14.6-15.5,32.9-24.4,53.6-28.7c5.5-1.1,11.2-2,16.7-3
		C-121.3,33-108.9,33-96.5,33z"/>
</g>
<g>
	<path class="st3" d="M437.4-287.7c-8.6,0-17.2,0-25.8,0c-2,0-2.8-0.5-2.7-2.7c1.3-23.1-1.2-45.9-7.2-68.1
		c-26.4-96.5-87.3-160-183-189.5c-24.4-7.5-49.7-10.5-75.3-9.4c-2.2,0.1-3.1-0.4-3.1-2.8c0.1-17.2,0.1-34.4,0-51.6
		c0-2.4,0.9-2.9,3-3.1c10.1-1,20.2-0.2,30.3,0.6c38.9,3,76.3,12.3,111.2,29.7c94.7,47.2,153.4,122.7,175.7,226.2
		c4.7,21.8,6.5,43.9,6,66.2c-0.1,3.5-1,4.7-4.7,4.6C453.6-287.9,445.5-287.7,437.4-287.7z"/>
	<path class="st3" d="M322.7-287.5c-8.4,0-16.7-0.1-25.1,0.1c-2.7,0-3.6-0.4-3.5-3.4c2.9-59.9-33.6-118.7-93-141.7
		c-18.7-7.2-38.1-10.7-58.2-9.4c-2.3,0.2-2.8-0.6-2.8-2.7c0-17.3,0.1-34.7,0-52c0-3.4,2-3.2,4.1-3.3c15.2-0.6,30.2,0.8,45,3.9
		c80.3,16.9,141.6,78.2,158.6,158.5c3.2,15.3,4.7,30.8,4,46.5c-0.1,2.7-0.7,3.7-3.6,3.6C339.7-287.6,331.2-287.5,322.7-287.5z"/>
	<path class="st3" d="M187.6-384.8c26.7,0.1,48.3,22,48.2,48.8c-0.1,26.8-21.9,48.6-48.6,48.5c-26.6-0.1-48.5-22-48.5-48.7
		C138.6-363,160.6-384.9,187.6-384.8z"/>
</g>
<g>
	<path class="st3" d="M660.8,58.2c0,38.8,0,77.6,0,116.4c-0.6,3.9-1,7.8-1.9,11.6c-8.6,36.4-38.4,60.1-75.7,60.1
		c-70.9,0.1-141.8,0-212.7,0c-5.9,0-11.7-0.5-17.5-1.8c-36-8.5-59.8-38.2-60-75.2c-0.2-35.3-0.1-70.6,0-106c0-13.6,3-26.7,10.1-38.4
		c15.3-25.5,38-38.5,67.7-38.5c70.6-0.2,141.3-0.1,211.9,0c1.8,0,3.6,0,5.4,0.1c32.9,1.5,61.5,24.7,69.9,56.6
		C659.3,48.1,659.6,53.3,660.8,58.2z M426.2,116.6c0,15.7,0,31.4,0,47.1c0,6.2,2.5,7.8,8.1,5.1c32.1-15.3,64.1-30.6,96.2-45.9
		c2.2-1,4.6-2,4.6-4.9c0-2.9-2.4-3.9-4.6-5c-32-16.2-64-32.4-96-48.6c-5.7-2.9-8.2-1.3-8.2,5.2C426.2,85.3,426.2,101,426.2,116.6z"
		/>
</g>
<g>
	<path class="st3" d="M-610.1-127.4c50.9,0,101.8,0,152.7,0c2.9,1.1,5.9,0.7,8.9,0.8c19.3,0.6,38.6,1.1,57.5,5.2
		c49.5,10.9,84.2,39.2,101.7,87.3c8.4,23.3,10.4,47.7,10.5,72.2c0.2,58.5,0.2,117.1,0,175.6c-0.1,18.6-1,37.2-4.9,55.5
		c-10.4,48.8-37.8,83.5-84.7,101.7c-22.6,8.8-46.5,10.7-70.5,11.5c-53.9,1.7-107.8,1.2-161.7,0.7c-26.6-0.3-53.2-0.3-79.4-6.6
		c-42.3-10.3-73.7-34.2-92.4-73.8c-11.5-24.4-14.5-50.6-15.4-77.2c-1.8-55.2-1.2-110.4-0.8-165.6c0.2-23.2,0.5-46.6,4.8-69.6
		c6.5-35.6,22.8-65.4,52.1-87.3c25.1-18.8,54.1-26.1,84.8-28.5C-634.6-126.4-622.3-125.8-610.1-127.4z M-533.3,337.7
		c13.5,0,26.9,0.1,40.4,0c29.1-0.4,58.3,0.6,87.1-4c39.1-6.3,65.2-28.1,75.7-67c4.3-16,4.8-32.5,5.4-49c1.5-47.2,1.1-94.5,0.8-141.7
		c-0.2-24.8-0.1-49.6-3.7-74.2c-6-41.1-31.1-68.3-71.7-77.5c-17.6-4-35.6-4.2-53.6-4.6c-47.6-0.9-95.1-0.8-142.7-0.3
		c-22.6,0.3-45.2,0.2-67.6,4.1C-702.1-69.6-728.1-45-737-6.8c-3.9,16.8-4.3,33.9-4.8,51c-1.2,41.2-1.1,82.5-0.7,123.7
		c0.3,28.6-0.4,57.3,3.6,85.7c4.1,29.1,17,53,43.2,68.2c16,9.3,33.8,12.7,52,13.9C-606.8,338.1-570.1,337.7-533.3,337.7z"/>
	<path class="st3" d="M-664.6,128.3C-664.8,56.1-605.8-3-533.3-3c72.4,0,130.7,58.1,131.2,130.8c0.5,72.2-58.4,131.4-131,131.7
		C-605.3,259.7-664.3,200.9-664.6,128.3z M-618.3,128.1c0,47.1,37.8,85,84.9,85.1c47.1,0.1,85-37.6,85.2-84.8
		c0.2-47.3-37.8-85.4-85.1-85.3C-580.5,43.2-618.3,81-618.3,128.1z"/>
	<path class="st3" d="M-366.3-8.5c0.1,16.9-13.3,30.6-30.1,30.8c-17,0.2-31-13.5-31.1-30.4c-0.1-16.9,13.3-30.5,30.1-30.7
		C-380.1-39-366.4-25.7-366.3-8.5z"/>
</g>
<g>
	<path class="st3" d="M-528.3-256.2c45.7,4.1,86.1-6.9,122.9-34.5c-4.2-0.5-7.6-0.8-10.9-1.4c-31.5-5.7-53.1-23.6-65.4-52.9
		c-1.8-4.2-1.5-4.3,3.2-3.7c10.5,1.4,20.9,0.9,32.4-2c-20.2-5-36-14.7-48.2-30.1c-12.1-15.3-18.2-32.8-18.2-53
		c11.6,5.8,23.4,9.7,36.2,10c-0.2-1.7-1.5-2-2.4-2.7c-18.4-14.1-29.3-32.9-32.5-55.7c-2.5-17.8,0.9-34.9,9.4-50.9
		c1.9-3.5,2.8-0.7,3.7,0.4c14.6,17.4,31.4,32.5,50.4,45.1c31.3,20.8,65.6,33.6,102.9,38.1c4.6,0.6,9.3,0.8,13.9,1.4
		c2.5,0.3,3.2-0.1,2.7-2.9c-3.7-21.8-0.1-42.2,11.7-61.2c17.1-27.6,52-43.2,83.9-37.6c17.6,3.1,32.8,10.6,45.4,23.1
		c1.7,1.7,3.2,2.1,5.6,1.5c17.3-3.8,33.5-10.1,49.9-19.6c-6.5,19.8-18.3,34.2-34.5,45.4c15.7-1.4,30.4-5.9,45.8-12.2
		c-10.7,15.8-22.7,29-37.1,39.6c-3.7,2.7-4.6,5.5-4.5,10c0.8,38.5-7.7,74.9-24.4,109.5c-20,41.5-49.1,75-88.4,99.4
		c-28,17.3-58.5,27.6-91.1,32c-28.6,3.8-57.1,2.9-85.3-3.2c-26.9-5.8-52-16.1-75.3-30.6C-526.8-255-527.1-255.3-528.3-256.2z"/>
</g>
<text transform="matrix(1 0 0 1 -1298.7979 84.5703)"><tspan x="0" y="0" style="font-family:'MyriadPro-Regular'; font-size:12px;">netherlands.png</tspan><tspan x="0" y="14.4" style="font-family:'MyriadPro-Regular'; font-size:12px;">italy.png</tspan><tspan x="0" y="28.8" style="font-family:'MyriadPro-Regular'; font-size:12px;">spain.png</tspan></text>
<g>
	<defs>
		<rect id="SVGID_1_" x="-2762.9" y="-1610.2" width="407.5" height="259.3"/>
	</defs>
	<clipPath id="SVGID_00000089551495446138599920000013826698400804573616_">
		<use xlink:href="#SVGID_1_"  style="overflow:visible;"/>
	</clipPath>
	<g style="clip-path:url(#SVGID_00000089551495446138599920000013826698400804573616_);">
		
			<image style="overflow:visible;" width="512" height="512" xlink:href="../../../../../../Downloads/spain.png"  transform="matrix(0.8 0 0 0.8 -2765.3293 -1678.7684)">
		</image>
	</g>
</g>
<g>
	<defs>
		<rect id="SVGID_00000027572664611669999460000008107200079961319556_" x="-2290.7" y="-1610.2" width="407.5" height="259.3"/>
	</defs>
	<clipPath id="SVGID_00000176727187734160225200000003361138288353027775_">
		<use xlink:href="#SVGID_00000027572664611669999460000008107200079961319556_"  style="overflow:visible;"/>
	</clipPath>
	<g transform="matrix(1 0 0 1 0 0)" style="clip-path:url(#SVGID_00000176727187734160225200000003361138288353027775_);">
		
			<image style="overflow:visible;" width="512" height="512" xlink:href="../../../../../../Downloads/netherlands.png"  transform="matrix(0.9254 0 0 0.9417 -2323.9265 -1718.9171)">
		</image>
	</g>
</g>
<g>
	<defs>
		<rect id="SVGID_00000181781002936873745790000018265007981425791123_" x="-1834.3" y="-1610.2" width="407.5" height="259.3"/>
	</defs>
	<clipPath id="SVGID_00000013871486437726313850000018104334790419234235_">
		<use xlink:href="#SVGID_00000181781002936873745790000018265007981425791123_"  style="overflow:visible;"/>
	</clipPath>
	<g style="clip-path:url(#SVGID_00000013871486437726313850000018104334790419234235_);">
		
			<image style="overflow:visible;" width="512" height="512" xlink:href="../../../../../../Downloads/italy.png"  transform="matrix(0.9151 0 0 0.9151 -1866.269 -1715.2047)">
		</image>
	</g>
</g>
</svg>
