<?xml version="1.0" encoding="UTF-8"?>
<svg id="Laag_2" data-name="Laag 2" xmlns="http://www.w3.org/2000/svg" viewBox="0 0 409.6 262.91">
  <defs>
    <style>
      .cls-1 {
        fill: #a2a2a4;
      }
    </style>
  </defs>
  <g id="Laag_2-2" data-name="Laag 2">
    <path class="cls-1" d="M409.6,126.84v9.58c-1.38-.26-1.42,.73-1.64,1.66-.88,3.65-2.29,7.09-4.35,10.22-46.16,70.24-109.85,110.78-194.99,114.44-27.41,1.18-54.04-3.67-79.73-13.23-32.46-12.08-61.33-30.11-86-54.39C25.46,177.97,9.19,159.71,0,136.42v-9.58c1.94-4.6,3.5-9.31,6.23-13.61C29.77,76.1,61.06,47.4,99.84,26.84,151.74-.67,206.37-7.43,262.86,8.39c55.61,15.57,99.86,48.14,133.27,95.26,4.96,7,10.38,13.89,12.15,22.67,.14,.67,.81,.52,1.33,.51Zm-116.26-75.27c28.55,53.28,6.69,105.16-25.3,130.94-34.73,27.98-85.99,28.81-119.95,5.22-21.7-15.07-37.02-34.98-43.05-61.16-5.99-26-2.64-50.85,10.08-74.54-4.81,2.34-9.34,4.76-13.71,7.45-28.81,17.76-51.8,41.43-70.46,69.5-1.29,1.94-1.45,3.22-.07,5.24,6.76,9.9,13.88,19.53,22,28.34,35.38,38.44,77.62,64.26,130.5,70.03,39.16,4.28,76.3-2.67,111.02-21.39,34.3-18.48,61.74-44.52,83.38-76.82,1.43-2.13,1.37-3.49-.04-5.57-7.62-11.26-15.83-22.04-25.09-32-16.98-18.28-36.4-33.38-59.32-45.25Zm-158.26,48.46c-.34,8.47,4.57,13.87,12.06,13.24,5.87-.49,9.89-4.91,9.85-12.34-.12-22.56,19.89-45.81,46.84-45.98,6.85-.04,11.66-4.9,11.53-11.1-.13-6.47-5.17-10.82-12.32-10.65-37.06,.89-66.47,29.81-67.97,66.83Z"/>
  </g>
</svg>