<?xml version="1.0" encoding="UTF-8"?>
<svg id="Laag_2" data-name="Laag 2" xmlns="http://www.w3.org/2000/svg" viewBox="0 0 91.63 91.63">
  <defs>
    <style>
      .cls-1 {
        fill: #fff;
      }

      .cls-2 {
        fill: #362b73;
        isolation: isolate;
      }
    </style>
  </defs>
  <g id="Laag_1-2" data-name="Laag 1">
    <g>
      <circle class="cls-1" cx="45.81" cy="45.81" r="45.81"/>
      <g>
        <path class="cls-2" d="M45.81,21.18c-13.6,0-24.62,11.03-24.62,24.63,0,7.44,3.3,14.12,8.52,18.62,4.32,3.75,9.94,6.01,16.1,6.01s11.8-2.27,16.11-6.01c5.22-4.51,8.52-11.18,8.52-18.62,0-13.6-11.03-24.63-24.63-24.63Zm11.05,42.04c-.53,.34-1.07,.65-1.62,.93-.37,.2-.75,.38-1.14,.54-.96,.43-1.95,.78-2.97,1.05-.49,.13-.99,.25-1.49,.34-.11,.02-.22,.04-.33,.06-.23,.04-.47,.08-.71,.11-.22,.03-.44,.06-.66,.08-.19,.02-.37,.04-.56,.05-.22,.02-.43,.03-.65,.04-.3,.01-.61,.02-.92,.02s-.62-.01-.92-.02c-.22-.01-.43-.02-.64-.04-.18-.01-.36-.03-.53-.05-.23-.02-.45-.05-.67-.08-.24-.03-.47-.06-.7-.11-.12-.01-.24-.04-.36-.06-.55-.1-1.09-.23-1.63-.38-.26-.07-.53-.14-.79-.23-.33-.1-.66-.22-.99-.35-.27-.09-.54-.2-.81-.32-.28-.11-.57-.24-.84-.38-.59-.28-1.16-.58-1.71-.92-.23-.14-.46-.28-.68-.43-.09-.05-.17-.11-.26-.17h0c1.82-4.68,6.34-7.89,11.53-7.89s9.73,3.21,11.54,7.89c-.16,.11-.32,.22-.49,.32Zm3.68-2.98c-2.65-5.46-8.25-9.23-14.73-9.23s-12.07,3.76-14.73,9.22c-3.76-3.83-5.89-8.99-5.89-14.42,0-11.38,9.25-20.63,20.62-20.63s20.63,9.25,20.63,20.63c0,5.42-2.13,10.59-5.9,14.43Z"/>
        <path class="cls-2" d="M45.81,31.98c3.34,0,6.05,2.71,6.05,6.05s-2.71,6.05-6.05,6.05-6.05-2.71-6.05-6.05,2.71-6.05,6.05-6.05h0Zm0-4c-5.55,0-10.05,4.5-10.05,10.05s4.5,10.05,10.05,10.05,10.05-4.5,10.05-10.05-4.5-10.05-10.05-10.05h0Z"/>
      </g>
    </g>
  </g>
</svg>