<?xml version="1.0" encoding="UTF-8"?>
<svg id="Laag_2" data-name="Laag 2" xmlns="http://www.w3.org/2000/svg" viewBox="0 0 510.28 511.17">
  <defs>
    <style>
      .cls-1 {
        fill: #fff;
      }
    </style>
  </defs>
  <g id="Laag_2-2" data-name="Laag 2">
    <g>
      <path class="cls-1" d="M178.85,0h152.7c2.88,1.14,5.91,.7,8.88,.79,19.28,.59,38.59,1.08,57.52,5.25,49.51,10.9,84.24,39.15,101.71,87.34,8.45,23.3,10.41,47.66,10.48,72.17,.18,58.55,.17,117.09,0,175.64-.06,18.62-.98,37.24-4.89,55.55-10.41,48.75-37.82,83.46-84.74,101.74-22.64,8.82-46.49,10.72-70.5,11.49-53.88,1.73-107.77,1.22-161.65,.68-26.55-.27-53.24-.27-79.35-6.61-42.29-10.26-73.7-34.24-92.39-73.84-11.5-24.37-14.51-50.59-15.39-77.18C-.62,297.83,.06,242.61,.46,187.39c.17-23.25,.53-46.58,4.76-69.59C11.74,82.24,28.05,52.43,57.29,30.49,82.35,11.68,111.38,4.36,142.06,1.96c12.25-.96,24.58-.39,36.79-1.96Zm76.76,465.06c13.47,0,26.95,.14,40.42-.03,29.09-.36,58.3,.61,87.12-4.03,39.14-6.31,65.18-28.14,75.72-67.02,4.34-16.01,4.85-32.51,5.38-48.96,1.54-47.23,1.09-94.47,.75-141.7-.18-24.76-.1-49.57-3.68-74.18-5.97-41.09-31.14-68.28-71.75-77.48-17.65-4-35.65-4.23-53.57-4.58-47.56-.94-95.13-.85-142.7-.29-22.6,.26-45.24,.18-67.63,4.12-38.87,6.85-64.86,31.5-73.74,69.71-3.91,16.82-4.29,33.95-4.77,51.05-1.16,41.24-1.08,82.49-.69,123.74,.27,28.58-.41,57.25,3.63,85.66,4.15,29.13,17.05,53.02,43.23,68.16,16.02,9.27,33.79,12.69,52.03,13.88,36.71,2.39,73.48,1.93,110.23,1.96Z"/>
      <path class="cls-1" d="M124.35,255.68c-.25-72.26,58.79-131.34,131.28-131.35,72.39-.01,130.73,58.15,131.23,130.82,.5,72.22-58.38,131.41-130.95,131.67-72.29,.26-131.3-58.56-131.55-131.14Zm46.25-.18c-.04,47.08,37.79,85,84.89,85.08,47.13,.08,85.05-37.63,85.21-84.75,.17-47.29-37.82-85.37-85.13-85.34-47.08,.03-84.92,37.9-84.96,85.01Z"/>
      <path class="cls-1" d="M422.63,118.88c.11,16.92-13.27,30.64-30.07,30.82-17.04,.19-30.99-13.46-31.07-30.4-.08-16.91,13.28-30.53,30.14-30.75,17.21-.22,30.88,13.15,31,30.32Z"/>
    </g>
  </g>
</svg>