<?xml version="1.0" encoding="utf-8"?>
<!-- Generator: Adobe Illustrator 27.0.0, SVG Export Plug-In . SVG Version: 6.00 Build 0)  -->
<svg version="1.1" id="Laag_2_00000148622344168199007980000001700852059868262548_"
	 xmlns="http://www.w3.org/2000/svg" xmlns:xlink="http://www.w3.org/1999/xlink" x="0px" y="0px" viewBox="0 0 388.1 382.3"
	 style="enable-background:new 0 0 388.1 382.3;" xml:space="preserve">
<style type="text/css">
	.st0{fill:#A2A2A4;}
</style>
<g id="Laag_1-2">
	<g>
		<path class="st0" d="M0,382.3V35c0-9.4,3.7-18.2,10.3-24.8S25.8,0,35.2,0l318.1,1.8c19.2,0.1,34.8,15.8,34.8,35v239.3
			c0,19.3-15.7,35-35,35H106.8L0,382.3z M40,40v267.5l54.7-36.5h253.4V41.7L40,40L40,40z"/>
		<g>
			<rect x="94.5" y="97.2" class="st0" width="195.6" height="42.9"/>
			<rect x="94.5" y="173.1" class="st0" width="139.8" height="42.9"/>
		</g>
	</g>
</g>
<g>
	<path class="st0" d="M428.4-198.2c0,3.2,0,6.4,0,9.6c-1.4-0.3-1.4,0.7-1.6,1.7c-0.9,3.6-2.3,7.1-4.3,10.2
		C376.3-106.5,312.6-66,227.4-62.3c-27.4,1.2-54-3.7-79.7-13.2c-32.5-12.1-61.3-30.1-86-54.4c-17.4-17.2-33.7-35.4-42.9-58.7
		c0-3.2,0-6.4,0-9.6c1.9-4.6,3.5-9.3,6.2-13.6c23.5-37.1,54.8-65.8,93.6-86.4c51.9-27.5,106.5-34.3,163-18.5
		c55.6,15.6,99.9,48.1,133.3,95.3c5,7,10.4,13.9,12.1,22.7C427.2-198.1,427.9-198.2,428.4-198.2z M312.2-273.5
		c28.6,53.3,6.7,105.2-25.3,130.9c-34.7,28-86,28.8-119.9,5.2c-21.7-15.1-37-35-43.1-61.2c-6-26-2.6-50.8,10.1-74.5
		c-4.8,2.3-9.3,4.8-13.7,7.4c-28.8,17.8-51.8,41.4-70.5,69.5c-1.3,1.9-1.5,3.2-0.1,5.2c6.8,9.9,13.9,19.5,22,28.3
		c35.4,38.4,77.6,64.3,130.5,70c39.2,4.3,76.3-2.7,111-21.4c34.3-18.5,61.7-44.5,83.4-76.8c1.4-2.1,1.4-3.5,0-5.6
		c-7.6-11.3-15.8-22-25.1-32C354.5-246.5,335.1-261.6,312.2-273.5z M153.9-225.1c-0.3,8.5,4.6,13.9,12.1,13.2
		c5.9-0.5,9.9-4.9,9.9-12.3c-0.1-22.6,19.9-45.8,46.8-46c6.9,0,11.7-4.9,11.5-11.1c-0.1-6.5-5.2-10.8-12.3-10.6
		C184.8-291,155.4-262.1,153.9-225.1z"/>
</g>
<g id="dj8PTx.tif">
	<g>
		<path class="st0" d="M550.4-141.2c10,0,20,0,29.9,0c3.5,1.5,7.2,0.8,10.8,1.2c54.8,6.1,103.2,27,144.2,63.9
			c43.9,39.4,71.2,88.3,81.5,146.4c1.7,9.6,2.7,19.3,4,29c0,10,0,20,0,29.9c-0.3,1.8-0.8,3.5-0.9,5.3c-0.7,10.8-2.2,21.5-4.5,32.1
			c-13.5,61.9-45.1,112.7-95.6,150.8C658.1,364,588.6,379.6,513,364.2c-62.1-12.6-112.5-45.1-150.8-95.5
			c-40.5-53.3-57.4-113.8-50.9-180.3c5.3-54.2,26.4-102,62.6-142.8c39.5-44.6,88.8-72.2,147.5-82.9
			C531-139.1,540.8-139.5,550.4-141.2z M786.8,114.3c0-122-99.7-221.6-221.6-221.5C443.4-107.1,344.1-7.9,343.9,114
			c-0.3,121.9,99.3,221.6,221.3,221.7C687.1,335.9,786.8,236.3,786.8,114.3z"/>
		<path class="st0" d="M548.4,37.9c0-28.8-0.1-57.5,0-86.3c0.1-13.4,13.3-21.8,24.7-15.7c6.5,3.5,9.3,9.1,9.2,16.4
			c-0.1,23.8,0,47.5,0,71.3c0,22.1,0.1,44.2-0.1,66.3c0,4.4,1,5.9,5.7,5.8c33.7-0.2,67.5-0.1,101.2-0.1c10.8,0,17.3,4.7,19.3,13.6
			c2,8.9-3.9,18.1-12.9,19.9c-2.4,0.5-5,0.6-7.4,0.6c-44.7,0-89.4-0.1-134.2,0.1c-4.7,0-5.7-1.4-5.7-5.8
			C548.5,95.4,548.4,66.7,548.4,37.9z"/>
	</g>
</g>
</svg>
