<?xml version="1.0" encoding="UTF-8"?>
<svg id="Laag_2" data-name="Laag 2" xmlns="http://www.w3.org/2000/svg" viewBox="0 0 91.98 139.39">
  <defs>
    <style>
      .cls-1 {
        fill: none;
      }

      .cls-2 {
        fill: #adb5d9;
      }
    </style>
  </defs>
  <g id="Laag_1-2" data-name="Laag 1">
    <g id="wtUs1I.tif">
      <path class="cls-2" d="M40.74,99.1c-16.94-.12-31.24-12.48-33.82-29.41-2.81-18.42,9.94-35.9,28.4-38.95,18.45-3.05,36.08,9.13,39.45,27.39,1.94,10.53-.5,20.05-7.27,28.39-.54,.66-.47,.97,.09,1.53,5.55,5.51,11.06,11.04,16.59,16.57,1.42,1.42,1.64,2.78,.63,3.83-1.04,1.08-2.44,.87-3.9-.59-5.53-5.53-11.06-11.04-16.56-16.59-.58-.59-.9-.58-1.53-.06-6.35,5.24-13.67,7.81-22.08,7.9Zm.24-4.63c16.49,0,29.79-13.27,29.8-29.77,.02-16.49-13.26-29.82-29.74-29.85-16.47-.03-29.85,13.29-29.87,29.73-.03,16.54,13.28,29.88,29.81,29.89Z"/>
    </g>
    <rect class="cls-1" width="91.98" height="139.39"/>
  </g>
</svg>