<?xml version="1.0" encoding="UTF-8"?>
<svg id="Laag_2" data-name="Laag 2" xmlns="http://www.w3.org/2000/svg" viewBox="0 0 510.95 511.12">
  <defs>
    <style>
      .cls-1 {
        fill: #a2a2a4;
      }
    </style>
  </defs>
  <g id="Laag_2-2" data-name="Laag 2">
    <g id="dj8PTx.tif">
      <g>
        <path class="cls-1" d="M240.48,0h29.94c3.48,1.5,7.21,.81,10.82,1.21,54.79,6.13,103.15,27.02,144.2,63.87,43.87,39.39,71.22,88.25,81.53,146.42,1.7,9.61,2.67,19.34,3.97,29.02v29.94c-.31,1.78-.8,3.54-.91,5.33-.68,10.81-2.23,21.5-4.54,32.05-13.53,61.88-45.12,112.67-95.64,150.79-61.67,46.54-131.17,62.13-206.81,46.72-62.06-12.65-112.5-45.14-150.83-95.49C11.67,356.62-5.14,296.08,1.36,229.58c5.29-54.19,26.4-102.01,62.57-142.79C103.45,42.21,152.68,14.54,211.4,3.87c9.65-1.75,19.45-2.13,29.08-3.87Zm236.43,255.52c.02-121.96-99.67-221.62-221.58-221.5-121.83,.12-221.11,99.33-221.37,221.22-.26,121.85,99.31,221.6,221.34,221.75,121.9,.14,221.59-99.48,221.61-221.47Z"/>
        <path class="cls-1" d="M238.46,179.14c0-28.76-.09-57.52,.05-86.28,.07-13.44,13.31-21.75,24.73-15.69,6.5,3.45,9.26,9.14,9.24,16.42-.06,23.77-.02,47.54-.02,71.32,0,22.11,.12,44.22-.1,66.33-.05,4.45,.98,5.88,5.67,5.85,33.75-.21,67.49-.14,101.24-.09,10.8,.02,17.32,4.72,19.3,13.64,1.99,8.95-3.91,18.12-12.94,19.88-2.43,.47-4.95,.59-7.44,.59-44.72,.03-89.44-.05-134.15,.14-4.7,.02-5.7-1.39-5.67-5.83,.19-28.76,.1-57.52,.1-86.28Z"/>
      </g>
    </g>
  </g>
</svg>