<?xml version="1.0" encoding="UTF-8"?>
<svg id="Laag_2" data-name="Laag 2" xmlns="http://www.w3.org/2000/svg" viewBox="0 0 91.62 91.62">
  <defs>
    <style>
      .cls-1 {
        fill: none;
      }

      .cls-2 {
        fill: #362b73;
      }
    </style>
  </defs>
  <g id="Laag_2-2" data-name="Laag 2">
    <g>
      <circle class="cls-1" cx="45.81" cy="45.81" r="45.81"/>
      <g>
        <g>
          <path class="cls-2" d="M45.81,21.18c-13.6,0-24.62,11.03-24.62,24.63,0,7.44,3.3,14.12,8.52,18.62,4.32,3.75,9.94,6.01,16.1,6.01s11.8-2.27,16.11-6.01c5.22-4.51,8.52-11.18,8.52-18.62,0-13.6-11.03-24.63-24.63-24.63Zm11.05,42.04c-.53,.34-1.07,.65-1.62,.93-.37,.2-.75,.38-1.14,.54-.96,.43-1.95,.78-2.97,1.05-.49,.13-.99,.25-1.49,.34-.11,.02-.22,.04-.33,.06-.23,.04-.47,.08-.71,.11-.22,.03-.44,.06-.66,.08-.19,.02-.37,.04-.56,.05-.22,.02-.43,.03-.65,.04-.3,.01-.61,.02-.92,.02s-.62-.01-.92-.02c-.22-.01-.43-.02-.64-.04-.18-.01-.36-.03-.53-.05-.23-.02-.45-.05-.67-.08-.24-.03-.47-.06-.7-.11-.12-.01-.24-.04-.36-.06-.55-.1-1.09-.23-1.63-.38-.26-.07-.53-.14-.79-.23-.33-.1-.66-.22-.99-.35-.27-.09-.54-.2-.81-.32-.28-.11-.57-.24-.84-.38-.59-.28-1.16-.58-1.71-.92-.23-.14-.46-.28-.68-.43-.09-.05-.17-.11-.26-.17h0c1.82-4.68,6.34-7.89,11.53-7.89s9.73,3.21,11.54,7.89c-.16,.11-.32,.22-.49,.32Zm3.68-2.98c-2.65-5.46-8.25-9.23-14.73-9.23s-12.07,3.76-14.73,9.22c-3.76-3.83-5.89-8.99-5.89-14.42,0-11.38,9.25-20.63,20.62-20.63s20.63,9.25,20.63,20.63c0,5.42-2.13,10.59-5.9,14.43Z"/>
          <path class="cls-2" d="M45.81,70.94c-6.04,0-11.87-2.18-16.43-6.13-5.52-4.76-8.69-11.69-8.69-19,0-13.86,11.27-25.13,25.12-25.13s25.13,11.27,25.13,25.13c0,7.3-3.17,14.23-8.69,19-4.56,3.96-10.4,6.13-16.44,6.13Zm0-49.26c-13.3,0-24.12,10.82-24.12,24.13,0,7.02,3.04,13.67,8.35,18.24,4.38,3.8,9.98,5.89,15.77,5.89s11.41-2.09,15.78-5.89c5.31-4.58,8.35-11.23,8.35-18.24,0-13.31-10.82-24.13-24.13-24.13Zm0,45.26c-.3,0-.6,0-.89-.02-.29-.01-.5-.02-.72-.04-.17,0-.36-.03-.54-.05-.23-.02-.45-.05-.68-.08-.25-.03-.49-.06-.74-.12-.03,0-.13-.02-.22-.03l-.11-.02c-.52-.09-1.07-.22-1.68-.39-.33-.09-.58-.16-.82-.24-.32-.1-.67-.22-1.01-.36-.26-.08-.54-.2-.83-.33-.27-.11-.58-.25-.87-.39-.64-.31-1.22-.62-1.74-.94-.23-.14-.47-.29-.7-.44-.04-.02-.11-.07-.18-.12l-.33-.22,.06-.43c1.94-4.99,6.65-8.21,12-8.21s10.11,3.3,12.01,8.21l.14,.37-.33,.22c-.18,.12-.34,.23-.51,.33-.54,.35-1.1,.67-1.65,.95-.38,.2-.78,.39-1.18,.56-.96,.43-1.99,.79-3.03,1.07-.5,.13-1.02,.26-1.53,.35l-.33,.06c-.24,.04-.49,.08-.73,.11-.22,.03-.45,.06-.68,.08-.25,.03-.41,.04-.58,.05-.21,.02-.43,.03-.65,.04-.35,.01-.64,.02-.94,.02Zm-10.91-4.23c.2,.13,.39,.25,.58,.36,.5,.31,1.04,.6,1.67,.9,.27,.14,.54,.26,.81,.37,.28,.12,.53,.23,.79,.31,.34,.13,.66,.25,.98,.35,.24,.08,.47,.14,.69,.2,.67,.18,1.19,.31,1.68,.39l.13,.02c.06,.01,.12,.02,.18,.03,.28,.06,.5,.08,.72,.11,.22,.03,.43,.06,.65,.08,.17,.02,.34,.04,.51,.05,.22,.02,.42,.03,.64,.04,.65,.02,1.19,.02,1.75,0,.26-.01,.46-.02,.67-.04,.17,0,.32-.02,.47-.04,.3-.03,.51-.06,.73-.09,.24-.03,.47-.07,.69-.11l.33-.06c.49-.09,.97-.2,1.45-.33,.99-.26,1.96-.61,2.89-1.02,.39-.16,.75-.33,1.11-.52,.54-.28,1.07-.58,1.59-.91h.02s.08-.06,.13-.09c-1.85-4.32-6.19-7.2-10.92-7.2s-9.04,2.81-10.91,7.2Zm25.5-1.61l-.31-.64c-2.64-5.44-8.24-8.95-14.28-8.95s-11.59,3.43-14.28,8.94l-.31,.64-.5-.5c-3.89-3.96-6.03-9.21-6.03-14.77,0-11.65,9.47-21.13,21.12-21.13s21.13,9.48,21.13,21.13c0,5.56-2.15,10.81-6.04,14.78l-.5,.51Zm-14.59-10.59c6.18,0,11.93,3.46,14.85,8.87,3.41-3.71,5.28-8.51,5.28-13.57,0-11.1-9.03-20.13-20.13-20.13s-20.12,9.03-20.12,20.13c0,5.06,1.87,9.85,5.27,13.56,2.96-5.49,8.58-8.87,14.85-8.87Z"/>
        </g>
        <g>
          <path class="cls-2" d="M45.81,31.98c3.34,0,6.05,2.71,6.05,6.05s-2.71,6.05-6.05,6.05-6.05-2.71-6.05-6.05,2.71-6.05,6.05-6.05h0Zm0-4c-5.55,0-10.05,4.5-10.05,10.05s4.5,10.05,10.05,10.05,10.05-4.5,10.05-10.05-4.5-10.05-10.05-10.05h0Z"/>
          <path class="cls-2" d="M45.81,48.58c-5.82,0-10.55-4.73-10.55-10.55s4.73-10.55,10.55-10.55,10.55,4.73,10.55,10.55-4.73,10.55-10.55,10.55Zm0-20.1c-5.27,0-9.55,4.28-9.55,9.55s4.28,9.55,9.55,9.55,9.55-4.28,9.55-9.55-4.28-9.55-9.55-9.55Zm0,16.1c-3.61,0-6.55-2.94-6.55-6.55s2.94-6.55,6.55-6.55,6.55,2.94,6.55,6.55-2.94,6.55-6.55,6.55Zm0-12.1c-3.06,0-5.55,2.49-5.55,5.55s2.49,5.55,5.55,5.55,5.55-2.49,5.55-5.55-2.49-5.55-5.55-5.55Z"/>
        </g>
      </g>
    </g>
  </g>
</svg>